<svg width="404" height="178" viewBox="0 0 404 178" fill="none" xmlns="http://www.w3.org/2000/svg">
<path d="M197.89 83.02C194.433 83.02 191.543 82.425 189.22 81.235C186.897 79.9883 185.168 78.3733 184.035 76.39C182.902 74.35 182.335 72.14 182.335 69.76C182.335 66.87 183.072 64.4333 184.545 62.45C186.075 60.41 188.2 58.88 190.92 57.86C193.697 56.7833 196.955 56.245 200.695 56.245H212C212 53.5817 211.575 51.3717 210.725 49.615C209.932 47.8017 208.742 46.4417 207.155 45.535C205.625 44.6283 203.698 44.175 201.375 44.175C198.655 44.175 196.303 44.855 194.32 46.215C192.337 47.575 191.118 49.5867 190.665 52.25H183.355C183.695 49.19 184.715 46.64 186.415 44.6C188.172 42.5033 190.382 40.9167 193.045 39.84C195.708 38.7067 198.485 38.14 201.375 38.14C205.342 38.14 208.628 38.8767 211.235 40.35C213.898 41.7667 215.882 43.7783 217.185 46.385C218.488 48.935 219.14 51.9667 219.14 55.48V82H212.765L212.34 74.435C211.773 75.625 211.037 76.7583 210.13 77.835C209.28 78.855 208.26 79.7617 207.07 80.555C205.88 81.2917 204.52 81.8867 202.99 82.34C201.517 82.7933 199.817 83.02 197.89 83.02ZM198.995 76.985C200.978 76.985 202.763 76.5883 204.35 75.795C205.993 74.945 207.382 73.8117 208.515 72.395C209.648 70.9217 210.498 69.3067 211.065 67.55C211.688 65.7933 212 63.9517 212 62.025V61.77H201.29C198.513 61.77 196.275 62.11 194.575 62.79C192.875 63.4133 191.657 64.32 190.92 65.51C190.183 66.6433 189.815 67.9467 189.815 69.42C189.815 70.95 190.155 72.2817 190.835 73.415C191.572 74.5483 192.62 75.4267 193.98 76.05C195.397 76.6733 197.068 76.985 198.995 76.985ZM241.49 83.02C238.204 83.02 235.314 82.3683 232.82 81.065C230.384 79.7617 228.485 77.75 227.125 75.03C225.822 72.31 225.17 68.91 225.17 64.83V39.16H232.31V64.065C232.31 68.315 233.245 71.5167 235.115 73.67C236.985 75.8233 239.62 76.9 243.02 76.9C245.4 76.9 247.554 76.3333 249.48 75.2C251.407 74.01 252.909 72.3383 253.985 70.185C255.119 67.975 255.685 65.2833 255.685 62.11V39.16H262.825V82H256.365L255.94 74.52C254.637 77.1833 252.71 79.28 250.16 80.81C247.61 82.2833 244.72 83.02 241.49 83.02ZM270.411 82V39.16H276.871L277.381 47.32C278.344 45.3933 279.563 43.75 281.036 42.39C282.566 41.03 284.379 39.9817 286.476 39.245C288.629 38.5083 291.066 38.14 293.786 38.14V45.62H291.151C289.338 45.62 287.609 45.875 285.966 46.385C284.323 46.8383 282.849 47.6033 281.546 48.68C280.299 49.7567 279.308 51.23 278.571 53.1C277.891 54.9133 277.551 57.18 277.551 59.9V82H270.411ZM311.561 83.02C308.104 83.02 305.214 82.425 302.891 81.235C300.568 79.9883 298.839 78.3733 297.706 76.39C296.573 74.35 296.006 72.14 296.006 69.76C296.006 66.87 296.743 64.4333 298.216 62.45C299.746 60.41 301.871 58.88 304.591 57.86C307.368 56.7833 310.626 56.245 314.366 56.245H325.671C325.671 53.5817 325.246 51.3717 324.396 49.615C323.603 47.8017 322.413 46.4417 320.826 45.535C319.296 44.6283 317.369 44.175 315.046 44.175C312.326 44.175 309.974 44.855 307.991 46.215C306.008 47.575 304.789 49.5867 304.336 52.25H297.026C297.366 49.19 298.386 46.64 300.086 44.6C301.843 42.5033 304.053 40.9167 306.716 39.84C309.379 38.7067 312.156 38.14 315.046 38.14C319.013 38.14 322.299 38.8767 324.906 40.35C327.569 41.7667 329.553 43.7783 330.856 46.385C332.159 48.935 332.811 51.9667 332.811 55.48V82H326.436L326.011 74.435C325.444 75.625 324.708 76.7583 323.801 77.835C322.951 78.855 321.931 79.7617 320.741 80.555C319.551 81.2917 318.191 81.8867 316.661 82.34C315.188 82.7933 313.488 83.02 311.561 83.02ZM312.666 76.985C314.649 76.985 316.434 76.5883 318.021 75.795C319.664 74.945 321.053 73.8117 322.186 72.395C323.319 70.9217 324.169 69.3067 324.736 67.55C325.359 65.7933 325.671 63.9517 325.671 62.025V61.77H314.961C312.184 61.77 309.946 62.11 308.246 62.79C306.546 63.4133 305.328 64.32 304.591 65.51C303.854 66.6433 303.486 67.9467 303.486 69.42C303.486 70.95 303.826 72.2817 304.506 73.415C305.243 74.5483 306.291 75.4267 307.651 76.05C309.068 76.6733 310.739 76.985 312.666 76.985Z" fill="#EBEBEB"/>
<path d="M200.1 147.02C196.53 147.02 193.413 146.425 190.75 145.235C188.143 144.045 186.047 142.402 184.46 140.305C182.93 138.152 181.995 135.63 181.655 132.74H188.965C189.248 134.213 189.843 135.573 190.75 136.82C191.657 138.067 192.875 139.087 194.405 139.88C195.992 140.617 197.918 140.985 200.185 140.985C202.168 140.985 203.812 140.702 205.115 140.135C206.418 139.512 207.382 138.69 208.005 137.67C208.685 136.65 209.025 135.545 209.025 134.355C209.025 132.598 208.6 131.267 207.75 130.36C206.957 129.453 205.767 128.745 204.18 128.235C202.593 127.668 200.667 127.187 198.4 126.79C196.53 126.45 194.688 125.997 192.875 125.43C191.062 124.863 189.447 124.127 188.03 123.22C186.613 122.257 185.48 121.095 184.63 119.735C183.837 118.375 183.44 116.703 183.44 114.72C183.44 112.283 184.063 110.13 185.31 108.26C186.557 106.333 188.342 104.832 190.665 103.755C193.045 102.678 195.793 102.14 198.91 102.14C203.5 102.14 207.212 103.245 210.045 105.455C212.878 107.665 214.55 110.867 215.06 115.06H208.005C207.722 112.907 206.787 111.235 205.2 110.045C203.67 108.798 201.545 108.175 198.825 108.175C196.162 108.175 194.122 108.713 192.705 109.79C191.345 110.867 190.665 112.283 190.665 114.04C190.665 115.173 191.033 116.193 191.77 117.1C192.563 117.95 193.697 118.687 195.17 119.31C196.7 119.933 198.57 120.443 200.78 120.84C203.613 121.35 206.192 122.03 208.515 122.88C210.838 123.73 212.708 125.005 214.125 126.705C215.598 128.348 216.335 130.7 216.335 133.76C216.335 136.423 215.655 138.747 214.295 140.73C212.992 142.713 211.122 144.272 208.685 145.405C206.248 146.482 203.387 147.02 200.1 147.02ZM237.287 146C234.737 146 232.527 145.603 230.657 144.81C228.787 144.017 227.342 142.685 226.322 140.815C225.359 138.888 224.877 136.31 224.877 133.08V109.195H217.397V103.16H224.877L225.812 92.79H232.017V103.16H244.427V109.195H232.017V133.08C232.017 135.743 232.555 137.557 233.632 138.52C234.709 139.427 236.607 139.88 239.327 139.88H243.917V146H237.287ZM265.048 147.02C261.761 147.02 258.871 146.368 256.378 145.065C253.941 143.762 252.043 141.75 250.683 139.03C249.38 136.31 248.728 132.91 248.728 128.83V103.16H255.868V128.065C255.868 132.315 256.803 135.517 258.673 137.67C260.543 139.823 263.178 140.9 266.578 140.9C268.958 140.9 271.111 140.333 273.038 139.2C274.965 138.01 276.466 136.338 277.543 134.185C278.676 131.975 279.243 129.283 279.243 126.11V103.16H286.383V146H279.923L279.498 138.52C278.195 141.183 276.268 143.28 273.718 144.81C271.168 146.283 268.278 147.02 265.048 147.02ZM312.839 147.02C308.702 147.02 305.075 146.057 301.959 144.13C298.842 142.147 296.434 139.455 294.734 136.055C293.034 132.655 292.184 128.802 292.184 124.495C292.184 120.188 293.034 116.363 294.734 113.02C296.434 109.62 298.842 106.957 301.959 105.03C305.132 103.103 308.787 102.14 312.924 102.14C316.437 102.14 319.497 102.848 322.104 104.265C324.767 105.682 326.807 107.665 328.224 110.215V84.8H335.364V146H328.904L328.309 138.945C327.402 140.362 326.24 141.693 324.824 142.94C323.407 144.13 321.707 145.122 319.724 145.915C317.74 146.652 315.445 147.02 312.839 147.02ZM313.689 140.815C316.522 140.815 319.015 140.135 321.169 138.775C323.322 137.415 324.994 135.545 326.184 133.165C327.374 130.728 327.969 127.867 327.969 124.58C327.969 121.35 327.374 118.517 326.184 116.08C324.994 113.643 323.322 111.745 321.169 110.385C319.015 109.025 316.522 108.345 313.689 108.345C310.912 108.345 308.447 109.025 306.294 110.385C304.14 111.745 302.469 113.643 301.279 116.08C300.089 118.517 299.494 121.35 299.494 124.58C299.494 127.867 300.089 130.728 301.279 133.165C302.469 135.545 304.14 137.415 306.294 138.775C308.447 140.135 310.912 140.815 313.689 140.815ZM343.69 146V103.16H350.83V146H343.69ZM347.26 94.065C345.843 94.065 344.653 93.6117 343.69 92.705C342.783 91.7417 342.33 90.5517 342.33 89.135C342.33 87.7183 342.783 86.585 343.69 85.735C344.653 84.8283 345.843 84.375 347.26 84.375C348.62 84.375 349.781 84.8283 350.745 85.735C351.708 86.585 352.19 87.7183 352.19 89.135C352.19 90.5517 351.708 91.7417 350.745 92.705C349.781 93.6117 348.62 94.065 347.26 94.065ZM378.304 147.02C374.338 147.02 370.768 146.113 367.594 144.3C364.421 142.43 361.928 139.823 360.114 136.48C358.301 133.08 357.394 129.142 357.394 124.665C357.394 120.075 358.301 116.108 360.114 112.765C361.984 109.365 364.506 106.758 367.679 104.945C370.909 103.075 374.508 102.14 378.474 102.14C382.554 102.14 386.153 103.075 389.269 104.945C392.443 106.758 394.936 109.365 396.749 112.765C398.619 116.108 399.554 120.047 399.554 124.58C399.554 129.113 398.619 133.08 396.749 136.48C394.879 139.823 392.358 142.43 389.184 144.3C386.011 146.113 382.384 147.02 378.304 147.02ZM378.389 140.9C380.826 140.9 383.093 140.305 385.189 139.115C387.286 137.868 388.986 136.027 390.289 133.59C391.593 131.153 392.244 128.15 392.244 124.58C392.244 120.953 391.593 117.95 390.289 115.57C389.043 113.133 387.371 111.32 385.274 110.13C383.234 108.883 380.968 108.26 378.474 108.26C376.094 108.26 373.828 108.883 371.674 110.13C369.578 111.32 367.878 113.133 366.574 115.57C365.328 117.95 364.704 120.953 364.704 124.58C364.704 128.15 365.328 131.153 366.574 133.59C367.878 136.027 369.549 137.868 371.589 139.115C373.686 140.305 375.953 140.9 378.389 140.9Z" fill="#EBEBEB"/>
<path d="M345.625 53.2249L345.501 41.8675L341.74 41.9084L341.726 40.6665L350.762 40.5683L350.775 41.8103L347.013 41.8511L347.137 53.2084L345.625 53.2249ZM351.862 53.1571L351.725 40.5579L353.489 40.5387L358.031 49.2919L362.399 40.442L364.181 40.4226L364.318 53.0219L362.806 53.0383L362.698 43.1389L358.629 51.3195L357.495 51.3319L353.267 43.2773L353.374 53.1407L351.862 53.1571Z" fill="white"/>
<g clip-path="url(#clip0_4024_195)">
<path d="M92.612 6L138.337 98.9887C133.628 98.5649 129.767 96.6498 124.869 96.5557C119.972 96.4615 110.35 99.8049 107.493 98.8474C104.102 97.7172 98.7024 80.7175 89.6453 79.0379C81.4672 77.5153 77.5901 82.397 72.7397 87.8439C53.3383 109.71 24.142 155.325 4.70915 177.097C3.94 177.944 1.63255 177.96 0.784912 177.097L92.612 6Z" fill="white"/>
<path d="M16.4819 176.704C39.6192 158.449 95.8299 102.866 126.015 104.891C144.192 106.115 151.366 124.025 158.885 137.823C165.791 150.49 171.379 163.974 178.192 176.704H143.031C136.83 163.393 129.013 137.572 111.998 135.468C86.506 132.313 42.2406 165.387 19.6213 176.704C14.8651 179.294 12.1181 179.263 16.4819 176.704Z" fill="#F7F7F7"/>
</g>
<defs>
<clipPath id="clip0_4024_195">
<rect width="178.945" height="171.097" fill="white" transform="translate(0 6)"/>
</clipPath>
</defs>
</svg>
