<svg width="178" height="172" viewBox="0 0 178 172" fill="none" xmlns="http://www.w3.org/2000/svg">
<path d="M91.8271 0L137.552 92.9887C132.843 92.5649 128.982 90.6498 124.084 90.5557C119.187 90.4615 109.565 93.8049 106.708 92.8474C103.317 91.7172 97.9175 74.7175 88.8604 73.0379C80.6823 71.5153 76.8051 76.397 71.9548 81.8439C52.5534 103.71 23.3571 149.325 3.92424 171.097C3.15509 171.944 0.847635 171.96 0 171.097L91.8271 0Z" fill="#2B2B2B"/>
<path d="M15.697 170.704C38.8343 152.449 95.045 96.8657 125.23 98.8906C143.407 100.115 150.581 118.025 158.1 131.823C165.006 144.49 170.594 157.974 177.407 170.704H142.246C136.045 157.393 128.228 131.572 111.213 129.468C85.721 126.313 41.4557 159.387 18.8364 170.704C14.0802 173.294 11.3332 173.263 15.697 170.704Z" fill="#121212"/>
</svg>
